<?xml version="1.0" standalone="no"?>
<!DOCTYPE svg PUBLIC "-//W3C//DTD SVG 20010904//EN"
 "http://www.w3.org/TR/2001/REC-SVG-20010904/DTD/svg10.dtd">
<svg version="1.0" xmlns="http://www.w3.org/2000/svg"
 width="512.000000pt" height="512.000000pt" viewBox="0 0 512.000000 512.000000"
 preserveAspectRatio="xMidYMid meet">
<metadata>
Created by potrace 1.11, written by Peter Selinger 2001-2013
</metadata>
<g transform="translate(0.000000,512.000000) scale(0.100000,-0.100000)"
fill="#000000" stroke="none">
<path d="M2243 5104 c-450 -54 -932 -258 -1287 -544 -519 -419 -864 -1040
-941 -1696 -19 -165 -19 -443 0 -608 77 -656 422 -1277 941 -1696 290 -233
685 -423 1055 -504 338 -75 760 -75 1098 0 489 108 970 379 1310 740 377 399
623 922 686 1460 19 165 19 443 0 608 -77 656 -422 1277 -941 1696 -360 290
-839 491 -1300 545 -158 18 -466 18 -621 -1z m20 -705 c31 -16 37 -28 37 -71
l0 -38 168 0 c453 0 785 -92 1022 -283 132 -107 234 -275 266 -436 20 -101 15
-273 -11 -371 -57 -217 -213 -426 -424 -569 -65 -44 -275 -151 -297 -151 -32
0 -10 -17 35 -29 138 -35 279 -134 353 -248 62 -95 86 -157 105 -274 52 -318
-84 -642 -355 -846 -194 -146 -426 -221 -709 -227 l-128 -2 -52 -36 c-78 -54
-258 -108 -359 -108 l-45 0 2 103 c2 93 0 102 -17 105 -48 8 -247 76 -259 89
-8 7 -19 30 -25 51 -12 44 -13 169 -2 176 5 3 37 -4 73 -15 79 -25 242 -59
249 -52 18 18 41 2643 23 2643 -20 0 -105 -64 -149 -113 -67 -74 -88 -126 -89
-217 0 -41 4 -90 8 -107 11 -42 -1 -43 -82 -2 -84 42 -183 136 -217 205 -23
47 -26 64 -22 122 14 196 200 381 491 491 64 24 70 29 83 66 21 63 88 113 186
139 66 18 113 19 141 5z"/>
<path d="M2285 3854 c-10 -85 -1 -1321 8 -1331 11 -11 150 12 252 42 119 34
312 129 410 202 147 109 259 249 313 391 23 58 26 83 27 188 0 119 0 121 -38
197 -70 142 -210 252 -402 316 -133 44 -246 61 -416 61 l-147 0 -7 -66z"/>
<path d="M2304 1889 c3 -233 9 -502 12 -598 l7 -174 101 6 c122 7 195 26 301
77 157 75 293 223 346 376 21 60 24 87 24 214 0 143 0 146 -33 214 -42 89
-132 179 -226 224 -112 54 -201 73 -380 79 l-159 6 7 -424z"/>
</g>
</svg>
